# xmcd
#
# Track frame offsets:
#	150
#	13198
#	31197
#	42848
#	60025
#	72954
#	87241
#	105110
#	123510
#	138964
#	152705
#
# Disc length: 2454 seconds
#
# Revision: 0
# Processed by: cddbd v1.5.2PL0 Copyright (c) Steve Scherf et al.
# Submitted via: audiograbber 1.83.01
#
DISCID=7d09940b
DTITLE=The Barker Band - Dig Me A Hole
DYEAR=2011
DGENRE=Bluegrass
TTITLE0=Black Cat
TTITLE1=Hold On
TTITLE2=Bad Thing
TTITLE3=Chapel
TTITLE4=Trouble
TTITLE5=Song for Dio
TTITLE6=Let it Go
TTITLE7=El Diablo
TTITLE8=Love letters
TTITLE9=Dig me a Hole
TTITLE10=The Bullet
EXTD=BAR007\nBB Records\nwww.barkerband.com
EXTT0=
EXTT1=
EXTT2=
EXTT3=
EXTT4=
EXTT5=
EXTT6=
EXTT7=
EXTT8=
EXTT9=
EXTT10=
PLAYORDER=
